# xmcd CD database file generated by LOLA_Freedb v0.9beta0
# 
# Track frame offsets:
#      150
#      15152
#      33976
#      52726
#      70208
#      81426
#      95586
#      110850
#      122373
#      135832
#      147956
#      164184
#      175630
#      189333
#      209806
#      224850
# 
# Disc length: 3134 seconds
# 
# Revision: 0 
# Processed by: cddbd v1.5.2PL0 Copyright (c) Steve Scherf et al.
# Submitted via: LOLA_Freedb v0.9beta0
# 
DISCID=e70c3c10
DTITLE=Miss Behavin - Unplagged And Naked
DYEAR=2008
DGENRE=
TTITLE0=Miss Behavin - One Budwiser
TTITLE1=Miss Behavin - Folsom Prison Blues
TTITLE2=Miss Behavin - Smoke Rings In The Dark
TTITLE3=Miss Behavin - Long Tall Texan
TTITLE4=Miss Behavin - Gotta Get Drunk
TTITLE5=Miss Behavin - Not Enough
TTITLE6=Miss Behavin - Man (Girl) Of Constant Sorrow
TTITLE7=Miss Behavin - Moanin The Blues
TTITLE8=Miss Behavin - How'd A White Boy Get The Blues
TTITLE9=Miss Behavin - Outta Town Boogie
TTITLE10=Miss Behavin - Missing You
TTITLE11=Miss Behavin - Honky Tonk Song
TTITLE12=Miss Behavin - Loser Like You
TTITLE13=Miss Behavin - Strawberry Wine
TTITLE14=Miss Behavin - These (Cowboy) Boots Were Made For Walking
TTITLE15=Miss Behavin - Yakety Axe
EXTD=
EXTT0=
EXTT1=
EXTT2=
EXTT3=
EXTT4=
EXTT5=
EXTT6=
EXTT7=
EXTT8=
EXTT9=
EXTT10=
EXTT11=
EXTT12=
EXTT13=
EXTT14=
EXTT15=
PLAYORDER=
